<?xml version="1.0" standalone="no"?><!DOCTYPE svg PUBLIC "-//W3C//DTD SVG 1.1//EN" "http://www.w3.org/Graphics/SVG/1.1/DTD/svg11.dtd"><svg class="icon" height="512" viewBox="0 0 1024 1024" version="1.1" xmlns="http://www.w3.org/2000/svg"><path d="M512 1004.608c-264 0-478.72-214.72-478.72-478.72S248 47.168 512 47.168s478.72 214.72 478.72 478.72-214.72 478.72-478.72 478.72zM512 72.832c-249.856 0-453.12 203.264-453.12 453.12s203.264 453.12 453.12 453.12 453.12-203.264 453.12-453.12-203.264-453.12-453.12-453.12z" fill="#DADADA" /><path d="M512 814.592a18.624 18.624 0 0 1-6.72-1.216c-61.376-23.04-126.528-63.232-169.92-104.96-46.528-44.672-63.744-277.632-66.688-323.84a19.2 19.2 0 1 1 38.272-2.496c7.04 108.8 28.736 273.408 54.976 298.624 37.696 36.224 96 72.704 150.08 94.144 54.08-21.44 112.32-57.856 150.144-94.144 24.832-23.808 45.568-172.16 53.696-280.256C636.48 387.904 543.808 329.152 512 307.584c-23.808 16.128-81.856 53.184-142.72 76.032a19.136 19.136 0 0 1-24.704-11.2 19.136 19.136 0 0 1 11.2-24.768c72.832-27.328 144.32-78.464 145.024-78.976a19.328 19.328 0 0 1 22.464 0c1.28 0.896 126.976 90.688 214.08 95.552 5.12 0.256 9.856 2.624 13.312 6.4 3.392 3.84 5.12 8.896 4.8 14.016-3.008 46.208-20.224 279.168-66.688 323.776-43.584 41.728-108.672 81.92-169.984 105.024a20.672 20.672 0 0 1-6.784 1.152z" fill="#658EC9" /><path d="M470.272 640.704a19.2 19.2 0 0 1-13.312-5.312L371.84 553.664a19.2 19.2 0 0 1 26.56-27.712l71.872 68.864 150.08-145.28a19.2 19.2 0 0 1 26.688 27.584L483.648 635.328a19.52 19.52 0 0 1-13.376 5.376z" fill="#658EC9" /><path d="M512 1011.008c-267.52 0-485.12-217.6-485.12-485.12S244.48 40.768 512 40.768s485.12 217.6 485.12 485.12a485.76 485.76 0 0 1-115.584 314.304 19.2 19.2 0 0 1-29.248-24.896 447.168 447.168 0 0 0 106.432-289.408c0-246.336-200.448-446.72-446.72-446.72s-446.72 200.384-446.72 446.72A447.232 447.232 0 0 0 512 972.608a446.4 446.4 0 0 0 232.128-64.96 19.072 19.072 0 0 1 26.368 6.4 19.072 19.072 0 0 1-6.4 26.368A483.584 483.584 0 0 1 512 1011.008z" fill="#658EC9" /><path d="M871.168 823.68m-32.704 0a32.704 32.704 0 1 0 65.408 0 32.704 32.704 0 1 0-65.408 0Z" fill="#658EC9" /></svg>