<?xml version="1.0" standalone="no"?>
<!DOCTYPE svg PUBLIC "-//W3C//DTD SVG 20010904//EN"
 "http://www.w3.org/TR/2001/REC-SVG-20010904/DTD/svg10.dtd">
<svg version="1.0" xmlns="http://www.w3.org/2000/svg"
 width="528.000000pt" height="125.000000pt" viewBox="0 0 528.000000 125.000000"
 preserveAspectRatio="xMidYMid meet">

<g transform="translate(0.000000,125.000000) scale(0.100000,-0.100000)"
fill="#000000" stroke="none">
<path d="M938 1133 c6 -2 12 -18 12 -33 0 -16 3 -31 8 -34 4 -2 6 13 4 35 -3
28 -9 39 -21 38 -10 0 -11 -2 -3 -6z"/>
<path d="M948 1033 c7 -3 16 -2 19 1 4 3 -2 6 -13 5 -11 0 -14 -3 -6 -6z"/>
<path d="M673 980 c0 -30 2 -43 4 -27 2 15 2 39 0 55 -2 15 -4 2 -4 -28z"/>
<path d="M1050 1020 c8 -5 20 -10 25 -10 6 0 3 5 -5 10 -8 5 -19 10 -25 10 -5
0 -3 -5 5 -10z"/>
<path d="M948 920 c2 -22 7 -40 11 -40 4 0 5 18 3 40 -2 22 -7 40 -11 40 -4 0
-5 -18 -3 -40z"/>
<path d="M1180 950 c-8 -5 -10 -10 -5 -10 6 0 17 5 25 10 8 5 11 10 5 10 -5 0
-17 -5 -25 -10z"/>
<path d="M1528 925 c6 -49 18 -52 14 -4 -2 21 -7 39 -11 39 -4 0 -5 -16 -3
-35z"/>
<path d="M677 863 c-9 -9 -9 -91 1 -96 4 -3 7 19 7 49 0 30 0 54 -1 54 0 0 -4
-3 -7 -7z"/>
<path d="M948 853 c7 -3 16 -2 19 1 4 3 -2 6 -13 5 -11 0 -14 -3 -6 -6z"/>
<path d="M1528 853 c7 -3 16 -2 19 1 4 3 -2 6 -13 5 -11 0 -14 -3 -6 -6z"/>
<path d="M1140 810 c8 -5 20 -10 25 -10 6 0 3 5 -5 10 -8 5 -19 10 -25 10 -5
0 -3 -5 5 -10z"/>
<path d="M3231 783 c12 -20 12 -26 0 -45 -13 -21 -13 -22 2 -9 10 7 17 21 17
31 0 10 -7 24 -17 31 -15 13 -15 12 -2 -8z"/>
<path d="M4989 788 c8 -11 11 -28 7 -45 -5 -21 -4 -24 4 -13 15 23 12 46 -7
61 -16 13 -17 12 -4 -3z"/>
<path d="M1213 775 c0 -8 4 -15 9 -15 4 0 8 4 8 9 0 6 -4 12 -8 15 -5 3 -9 -1
-9 -9z"/>
<path d="M1796 777 c3 -10 9 -15 12 -12 3 3 0 11 -7 18 -10 9 -11 8 -5 -6z"/>
<path d="M2958 773 c20 -4 22 -10 22 -58 0 -47 2 -53 17 -48 11 4 12 8 5 11
-7 2 -12 23 -12 53 0 47 -1 49 -27 48 -24 -2 -25 -2 -5 -6z"/>
<path d="M328 763 c7 -3 16 -2 19 1 4 3 -2 6 -13 5 -11 0 -14 -3 -6 -6z"/>
<path d="M363 735 c0 -22 2 -30 4 -17 2 12 2 30 0 40 -3 9 -5 -1 -4 -23z"/>
<path d="M953 735 c0 -22 2 -30 4 -17 2 12 2 30 0 40 -3 9 -5 -1 -4 -23z"/>
<path d="M1531 745 c-1 -31 14 -55 33 -55 5 0 2 6 -6 13 -9 6 -19 26 -21 42
l-4 30 -2 -30z"/>
<path d="M878 753 c7 -3 16 -2 19 1 4 3 -2 6 -13 5 -11 0 -14 -3 -6 -6z"/>
<path d="M4118 753 c12 -2 32 -2 45 0 12 2 2 4 -23 4 -25 0 -35 -2 -22 -4z"/>
<path d="M2112 608 l-2 -147 -42 -4 -43 -4 48 -1 47 -2 0 73 1 72 37 -70 37
-70 53 -3 c28 -2 52 0 52 4 0 3 -19 41 -42 84 l-41 77 36 60 c20 33 37 65 37
69 0 5 -19 -22 -42 -60 l-41 -69 42 -79 42 -78 -45 0 -45 0 -40 77 c-33 62
-38 80 -28 92 9 11 9 13 0 8 -9 -6 -13 10 -16 55 -2 35 -4 -3 -5 -84z"/>
<path d="M2193 738 c-15 -20 -25 -38 -20 -38 3 0 12 11 21 25 17 26 16 35 -1
13z"/>
<path d="M4213 734 c28 -15 28 -16 11 -35 -11 -12 -25 -17 -38 -14 -19 6 -20
5 -3 -5 15 -10 23 -8 43 11 l25 24 -21 17 c-12 10 -27 18 -34 18 -6 -1 2 -8
17 -16z"/>
<path d="M3807 734 c13 -3 23 -15 26 -30 4 -21 4 -21 3 3 -1 22 -6 28 -26 30
-21 1 -21 0 -3 -3z"/>
<path d="M4029 713 l-24 -28 28 24 c15 14 27 26 27 28 0 8 -8 1 -31 -24z"/>
<path d="M5102 733 c9 -2 19 -16 21 -31 4 -24 4 -24 6 6 1 27 -2 32 -21 31
-16 -1 -18 -3 -6 -6z"/>
<path d="M3744 715 c-3 -8 -4 -20 -2 -27 3 -7 7 -1 10 15 6 29 1 36 -8 12z"/>
<path d="M5042 705 c0 -16 2 -22 5 -12 2 9 2 23 0 30 -3 6 -5 -1 -5 -18z"/>
<path d="M3188 713 c7 -3 16 -2 19 1 4 3 -2 6 -13 5 -11 0 -14 -3 -6 -6z"/>
<path d="M4948 713 c6 -2 18 -2 25 0 6 3 1 5 -13 5 -14 0 -19 -2 -12 -5z"/>
<path d="M677 703 c-4 -3 -7 -28 -7 -55 0 -43 2 -48 23 -47 16 1 18 2 5 6 -26
6 -26 90 0 96 14 4 14 5 1 6 -9 0 -19 -2 -22 -6z"/>
<path d="M2150 670 c-6 -11 -8 -20 -6 -20 3 0 10 9 16 20 6 11 8 20 6 20 -3 0
-10 -9 -16 -20z"/>
<path d="M2378 683 c7 -3 16 -2 19 1 4 3 -2 6 -13 5 -11 0 -14 -3 -6 -6z"/>
<path d="M2668 683 c7 -3 16 -2 19 1 4 3 -2 6 -13 5 -11 0 -14 -3 -6 -6z"/>
<path d="M2841 671 c22 -17 24 -29 27 -115 l4 -96 -41 0 -41 0 0 78 c0 83 -5
99 -27 81 -9 -8 -13 -36 -13 -85 l0 -74 -40 0 -40 0 0 85 c0 47 -4 85 -8 85
-22 0 -32 -29 -32 -96 l0 -73 -42 -4 -43 -4 48 -1 47 -2 0 79 c0 108 18 115
22 9 l3 -83 48 -3 47 -3 0 80 c0 44 5 83 10 86 6 4 10 -25 10 -80 l0 -86 48 3
47 3 0 96 c0 81 -3 100 -19 118 -11 12 -23 21 -29 21 -5 0 1 -9 14 -19z"/>
<path d="M3440 677 c24 -12 25 -17 28 -115 l3 -102 -36 0 -35 0 0 79 c0 81 -9
102 -35 81 -11 -9 -15 -34 -15 -86 l0 -73 -42 -4 -43 -4 47 -1 47 -2 3 82 c2
54 7 83 16 86 9 3 12 -18 12 -82 l0 -86 45 0 45 0 0 103 c0 88 -3 106 -18 120
-10 10 -25 17 -33 17 -8 0 -3 -6 11 -13z"/>
<path d="M3558 683 c6 -2 18 -2 25 0 6 3 1 5 -13 5 -14 0 -19 -2 -12 -5z"/>
<path d="M4096 668 c-21 -29 -21 -118 -1 -144 14 -18 14 -17 5 9 -15 42 -12
110 6 135 8 12 13 22 10 22 -3 0 -12 -10 -20 -22z"/>
<path d="M4408 683 c19 -4 23 -9 18 -26 -3 -12 -6 -27 -6 -34 0 -6 -8 -14 -17
-16 -14 -4 -12 -5 5 -6 12 -1 22 5 22 13 0 7 3 28 6 45 6 29 5 31 -22 30 -25
-2 -26 -2 -6 -6z"/>
<path d="M4498 683 c7 -3 16 -2 19 1 4 3 -2 6 -13 5 -11 0 -14 -3 -6 -6z"/>
<path d="M4568 683 c7 -3 16 -2 19 1 4 3 -2 6 -13 5 -11 0 -14 -3 -6 -6z"/>
<path d="M2494 652 c30 -39 35 -105 11 -152 -9 -17 -13 -30 -11 -30 14 0 36
64 36 104 0 37 -6 52 -31 78 l-31 33 26 -33z"/>
<path d="M2626 668 c3 -5 10 -6 15 -3 13 9 11 12 -6 12 -8 0 -12 -4 -9 -9z"/>
<path d="M2740 666 c7 -7 13 -7 20 0 6 6 3 10 -10 10 -13 0 -16 -4 -10 -10z"/>
<path d="M3152 568 l-2 -118 45 0 45 0 -2 118 -2 117 -3 -112 -4 -113 -34 0
-34 0 -4 113 -3 112 -2 -117z"/>
<path d="M3340 670 c0 -5 5 -10 11 -10 5 0 7 5 4 10 -3 6 -8 10 -11 10 -2 0
-4 -4 -4 -10z"/>
<path d="M3515 670 c-3 -6 1 -7 9 -4 18 7 21 14 7 14 -6 0 -13 -4 -16 -10z"/>
<path d="M3683 660 c11 -17 17 -55 19 -117 2 -50 6 -86 10 -80 3 7 3 51 -1 99
-5 66 -11 92 -25 105 -18 17 -18 17 -3 -7z"/>
<path d="M3722 650 c0 -19 2 -27 5 -17 2 9 2 25 0 35 -3 9 -5 1 -5 -18z"/>
<path d="M3881 668 c0 -9 -4 -25 -7 -35 -5 -17 -5 -17 6 0 6 10 9 25 7 35 -4
15 -5 15 -6 0z"/>
<path d="M4272 568 l-2 -118 45 0 c28 0 47 5 50 13 8 25 11 137 3 125 -4 -7
-8 -39 -8 -70 l0 -58 -40 0 -39 0 -4 113 -3 112 -2 -117z"/>
<path d="M4350 659 c0 -11 4 -18 10 -14 5 3 7 12 3 20 -7 21 -13 19 -13 -6z"/>
<path d="M4455 669 c-4 -6 -5 -12 -2 -15 2 -3 7 2 10 11 7 17 1 20 -8 4z"/>
<path d="M4672 567 l-2 -118 48 3 47 3 3 75 c2 56 7 78 19 88 9 6 12 12 7 12
-24 0 -34 -28 -34 -97 l0 -73 -40 0 -39 0 -4 113 -3 112 -2 -118z"/>
<path d="M4750 668 c0 -4 4 -8 9 -8 6 0 12 4 15 8 3 5 -1 9 -9 9 -8 0 -15 -4
-15 -9z"/>
<path d="M4869 663 c6 -12 11 -62 11 -112 l0 -90 -42 -4 -43 -4 48 -1 47 -2 0
98 c0 74 -4 103 -16 118 -15 18 -15 18 -5 -3z"/>
<path d="M4912 567 l-2 -118 48 3 47 3 3 83 c2 45 6 82 11 82 4 0 6 14 3 30
-2 17 -8 30 -13 30 -5 0 -9 -49 -9 -110 l0 -110 -40 0 -39 0 -4 113 -3 112 -2
-118z"/>
<path d="M5169 652 c-3 -20 -2 -29 4 -23 5 5 7 19 5 32 -3 20 -5 19 -9 -9z"/>
<path d="M3106 655 c4 -11 10 -47 12 -81 3 -54 1 -64 -23 -95 l-27 -34 31 33
c27 29 31 39 31 90 -1 33 -7 67 -16 82 -9 15 -12 17 -8 5z"/>
<path d="M4625 655 c10 -29 23 -163 18 -189 -3 -20 -3 -20 6 -1 11 26 -2 165
-18 191 -12 18 -12 18 -6 -1z"/>
<path d="M1008 653 c7 -3 16 -2 19 1 4 3 -2 6 -13 5 -11 0 -14 -3 -6 -6z"/>
<path d="M458 643 c7 -3 16 -2 19 1 4 3 -2 6 -13 5 -11 0 -14 -3 -6 -6z"/>
<path d="M1628 643 c7 -3 16 -2 19 1 4 3 -2 6 -13 5 -11 0 -14 -3 -6 -6z"/>
<path d="M3992 630 c0 -14 2 -19 5 -12 2 6 2 18 0 25 -3 6 -5 1 -5 -13z"/>
<path d="M2305 629 c-4 -6 -5 -12 -2 -15 2 -3 7 2 10 11 7 17 1 20 -8 4z"/>
<path d="M2392 618 c-13 -13 -17 -94 -4 -101 4 -3 7 18 7 46 0 40 4 52 17 55
9 2 19 -5 22 -15 4 -15 5 -15 3 2 -3 23 -27 31 -45 13z"/>
<path d="M2992 618 c-13 -13 -17 -94 -4 -101 4 -3 7 18 7 46 0 40 4 52 17 55
11 2 18 -5 21 -20 5 -21 5 -21 4 2 -2 28 -26 37 -45 18z"/>
<path d="M3568 623 c12 -2 30 -2 40 0 9 3 -1 5 -23 4 -22 0 -30 -2 -17 -4z"/>
<path d="M4122 603 c-1 -18 4 -35 12 -40 8 -4 16 -19 19 -33 4 -21 4 -20 6 8
1 22 -4 32 -13 32 -9 0 -16 13 -19 33 l-4 32 -1 -32z"/>
<path d="M4240 553 c-3 -45 -1 -78 3 -74 4 4 7 41 5 82 l-3 74 -5 -82z"/>
<path d="M4520 624 c35 -6 39 -21 8 -27 -19 -4 -18 -5 5 -6 43 -2 33 33 -11
37 -32 2 -32 2 -2 -4z"/>
<path d="M615 610 c-19 -8 -19 -9 3 -9 12 -1 22 4 22 9 0 6 -1 10 -2 9 -2 0
-12 -4 -23 -9z"/>
<path d="M1158 613 c7 -3 16 -2 19 1 4 3 -2 6 -13 5 -11 0 -14 -3 -6 -6z"/>
<path d="M1785 610 c-18 -8 -17 -9 8 -9 16 -1 26 3 22 9 -3 6 -7 10 -8 9 -1 0
-11 -4 -22 -9z"/>
<path d="M3743 580 c0 -25 2 -35 4 -22 2 12 2 32 0 45 -2 12 -4 2 -4 -23z"/>
<path d="M3834 565 c1 -44 4 -50 23 -53 26 -4 41 -41 22 -53 -11 -7 -11 -9 -1
-9 7 0 15 6 18 14 8 21 -14 56 -36 56 -15 0 -20 9 -23 48 l-4 47 1 -50z"/>
<path d="M5043 560 c0 -36 2 -50 4 -32 2 17 2 47 0 65 -2 17 -4 3 -4 -33z"/>
<path d="M5121 583 c-1 -53 7 -73 28 -73 10 0 23 -12 30 -26 6 -15 14 -24 17
-21 11 10 -17 48 -43 58 -20 7 -24 14 -19 33 3 14 2 35 -3 48 -8 20 -10 17
-10 -19z"/>
<path d="M98 603 c7 -3 16 -2 19 1 4 3 -2 6 -13 5 -11 0 -14 -3 -6 -6z"/>
<path d="M1268 603 c7 -3 16 -2 19 1 4 3 -2 6 -13 5 -11 0 -14 -3 -6 -6z"/>
<path d="M3595 600 l-30 -8 27 -1 c15 0 30 4 33 9 3 6 5 9 3 9 -2 -1 -16 -5
-33 -9z"/>
<path d="M2292 570 c0 -19 2 -27 5 -17 2 9 2 25 0 35 -3 9 -5 1 -5 -18z"/>
<path d="M3992 565 c0 -16 2 -22 5 -12 2 9 2 23 0 30 -3 6 -5 -1 -5 -18z"/>
<path d="M328 573 c7 -3 16 -2 19 1 4 3 -2 6 -13 5 -11 0 -14 -3 -6 -6z"/>
<path d="M363 545 c0 -22 2 -30 4 -17 2 12 2 30 0 40 -3 9 -5 -1 -4 -23z"/>
<path d="M908 573 c6 -2 18 -2 25 0 6 3 1 5 -13 5 -14 0 -19 -2 -12 -5z"/>
<path d="M953 545 c0 -22 2 -30 4 -17 2 12 2 30 0 40 -3 9 -5 -1 -4 -23z"/>
<path d="M1498 573 c7 -3 16 -2 19 1 4 3 -2 6 -13 5 -11 0 -14 -3 -6 -6z"/>
<path d="M1533 545 c0 -22 2 -30 4 -17 2 12 2 30 0 40 -3 9 -5 -1 -4 -23z"/>
<path d="M4449 563 c-13 -16 -12 -17 4 -4 9 7 17 15 17 17 0 8 -8 3 -21 -13z"/>
<path d="M258 563 c6 -2 18 -2 25 0 6 3 1 5 -13 5 -14 0 -19 -2 -12 -5z"/>
<path d="M848 563 c7 -3 16 -2 19 1 4 3 -2 6 -13 5 -11 0 -14 -3 -6 -6z"/>
<path d="M1428 563 c6 -2 18 -2 25 0 6 3 1 5 -13 5 -14 0 -19 -2 -12 -5z"/>
<path d="M198 553 c6 -2 18 -2 25 0 6 3 1 5 -13 5 -14 0 -19 -2 -12 -5z"/>
<path d="M788 553 c7 -3 16 -2 19 1 4 3 -2 6 -13 5 -11 0 -14 -3 -6 -6z"/>
<path d="M1368 553 c6 -2 18 -2 25 0 6 3 1 5 -13 5 -14 0 -19 -2 -12 -5z"/>
<path d="M138 543 c6 -2 18 -2 25 0 6 3 1 5 -13 5 -14 0 -19 -2 -12 -5z"/>
<path d="M728 543 c7 -3 16 -2 19 1 4 3 -2 6 -13 5 -11 0 -14 -3 -6 -6z"/>
<path d="M1308 543 c6 -2 18 -2 25 0 6 3 1 5 -13 5 -14 0 -19 -2 -12 -5z"/>
<path d="M3027 531 c-4 -17 -3 -21 5 -13 5 5 8 16 6 23 -3 8 -7 3 -11 -10z"/>
<path d="M3584 535 c-7 -17 3 -35 19 -35 8 0 7 3 -2 9 -8 5 -11 16 -8 25 4 9
4 16 1 16 -2 0 -7 -7 -10 -15z"/>
<path d="M3621 534 c0 -11 3 -14 6 -6 3 7 2 16 -1 19 -3 4 -6 -2 -5 -13z"/>
<path d="M4546 535 c4 -8 1 -15 -5 -15 -6 0 -11 -4 -11 -10 0 -5 7 -7 15 -4
16 7 21 44 5 44 -5 0 -7 -7 -4 -15z"/>
<path d="M674 526 c-3 -8 -4 -31 -2 -52 3 -36 4 -35 8 14 5 53 4 63 -6 38z"/>
<path d="M4430 516 c0 -14 4 -27 8 -30 5 -3 6 8 4 25 -5 35 -12 38 -12 5z"/>
<path d="M4000 521 c0 -6 4 -13 10 -16 6 -3 7 1 4 9 -7 18 -14 21 -14 7z"/>
<path d="M2300 513 c0 -5 12 -20 28 -34 l27 -24 -25 30 c-14 17 -26 32 -27 34
-2 2 -3 0 -3 -6z"/>
<path d="M388 503 c7 -3 16 -2 19 1 4 3 -2 6 -13 5 -11 0 -14 -3 -6 -6z"/>
<path d="M1558 503 c7 -3 16 -2 19 1 4 3 -2 6 -13 5 -11 0 -14 -3 -6 -6z"/>
<path d="M1018 493 c7 -3 16 -2 19 1 4 3 -2 6 -13 5 -11 0 -14 -3 -6 -6z"/>
<path d="M3500 493 c0 -5 10 -18 23 -29 l22 -19 -20 25 c-11 14 -21 27 -22 29
-2 2 -3 0 -3 -6z"/>
<path d="M478 483 c7 -3 16 -2 19 1 4 3 -2 6 -13 5 -11 0 -14 -3 -6 -6z"/>
<path d="M318 473 c7 -3 16 -2 19 1 4 3 -2 6 -13 5 -11 0 -14 -3 -6 -6z"/>
<path d="M398 473 c7 -3 16 -2 19 1 4 3 -2 6 -13 5 -11 0 -14 -3 -6 -6z"/>
<path d="M518 473 c7 -3 16 -2 19 1 4 3 -2 6 -13 5 -11 0 -14 -3 -6 -6z"/>
<path d="M908 473 c7 -3 16 -2 19 1 4 3 -2 6 -13 5 -11 0 -14 -3 -6 -6z"/>
<path d="M988 473 c7 -3 16 -2 19 1 4 3 -2 6 -13 5 -11 0 -14 -3 -6 -6z"/>
<path d="M1108 473 c7 -3 16 -2 19 1 4 3 -2 6 -13 5 -11 0 -14 -3 -6 -6z"/>
<path d="M1488 473 c7 -3 16 -2 19 1 4 3 -2 6 -13 5 -11 0 -14 -3 -6 -6z"/>
<path d="M1568 473 c7 -3 16 -2 19 1 4 3 -2 6 -13 5 -11 0 -14 -3 -6 -6z"/>
<path d="M3619 463 c-13 -16 -12 -17 4 -4 14 11 21 11 29 3 7 -7 16 -12 22
-12 10 0 -24 29 -35 30 -4 0 -13 -8 -20 -17z"/>
<path d="M3772 464 c10 -10 20 -16 22 -13 3 3 -5 11 -17 18 -21 13 -21 12 -5
-5z"/>
<path d="M4556 465 c-11 -8 -15 -15 -9 -15 7 0 15 5 18 10 4 6 11 7 17 4 7 -4
8 -2 4 4 -9 14 -7 15 -30 -3z"/>
<path d="M258 463 c7 -3 16 -2 19 1 4 3 -2 6 -13 5 -11 0 -14 -3 -6 -6z"/>
<path d="M458 463 c7 -3 16 -2 19 1 4 3 -2 6 -13 5 -11 0 -14 -3 -6 -6z"/>
<path d="M838 463 c6 -2 18 -2 25 0 6 3 1 5 -13 5 -14 0 -19 -2 -12 -5z"/>
<path d="M1048 463 c7 -3 16 -2 19 1 4 3 -2 6 -13 5 -11 0 -14 -3 -6 -6z"/>
<path d="M1428 463 c7 -3 16 -2 19 1 4 3 -2 6 -13 5 -11 0 -14 -3 -6 -6z"/>
<path d="M1628 463 c7 -3 16 -2 19 1 4 3 -2 6 -13 5 -11 0 -14 -3 -6 -6z"/>
<path d="M1738 463 c7 -3 16 -2 19 1 4 3 -2 6 -13 5 -11 0 -14 -3 -6 -6z"/>
<path d="M2460 460 c-9 -6 -10 -10 -3 -10 6 0 15 5 18 10 8 12 4 12 -15 0z"/>
<path d="M2935 460 l-40 -7 42 -2 c23 0 45 4 48 9 3 6 3 9 -2 9 -4 -1 -26 -5
-48 -9z"/>
<path d="M198 453 c7 -3 16 -2 19 1 4 3 -2 6 -13 5 -11 0 -14 -3 -6 -6z"/>
<path d="M518 453 c7 -3 16 -2 19 1 4 3 -2 6 -13 5 -11 0 -14 -3 -6 -6z"/>
<path d="M620 450 c8 -5 20 -10 25 -10 6 0 3 5 -5 10 -8 5 -19 10 -25 10 -5 0
-3 -5 5 -10z"/>
<path d="M778 453 c6 -2 18 -2 25 0 6 3 1 5 -13 5 -14 0 -19 -2 -12 -5z"/>
<path d="M1108 453 c7 -3 16 -2 19 1 4 3 -2 6 -13 5 -11 0 -14 -3 -6 -6z"/>
<path d="M1175 450 c-15 -6 -11 -8 16 -7 21 1 35 5 32 10 -5 9 -22 8 -48 -3z"/>
<path d="M1368 453 c7 -3 16 -2 19 1 4 3 -2 6 -13 5 -11 0 -14 -3 -6 -6z"/>
<path d="M1688 453 c6 -2 18 -2 25 0 6 3 1 5 -13 5 -14 0 -19 -2 -12 -5z"/>
<path d="M1780 456 c0 -2 7 -7 16 -10 8 -3 12 -2 9 4 -6 10 -25 14 -25 6z"/>
<path d="M138 443 c7 -3 16 -2 19 1 4 3 -2 6 -13 5 -11 0 -14 -3 -6 -6z"/>
<path d="M578 443 c7 -3 16 -2 19 1 4 3 -2 6 -13 5 -11 0 -14 -3 -6 -6z"/>
<path d="M718 443 c6 -2 18 -2 25 0 6 3 1 5 -13 5 -14 0 -19 -2 -12 -5z"/>
<path d="M1308 443 c7 -3 16 -2 19 1 4 3 -2 6 -13 5 -11 0 -14 -3 -6 -6z"/>
<path d="M1748 443 c7 -3 16 -2 19 1 4 3 -2 6 -13 5 -11 0 -14 -3 -6 -6z"/>
<path d="M2398 443 c6 -2 18 -2 25 0 6 3 1 5 -13 5 -14 0 -19 -2 -12 -5z"/>
<path d="M3028 443 c7 -3 16 -2 19 1 4 3 -2 6 -13 5 -11 0 -14 -3 -6 -6z"/>
<path d="M3568 443 c7 -3 16 -2 19 1 4 3 -2 6 -13 5 -11 0 -14 -3 -6 -6z"/>
<path d="M3828 443 c7 -3 16 -2 19 1 4 3 -2 6 -13 5 -11 0 -14 -3 -6 -6z"/>
<path d="M4118 443 c6 -2 18 -2 25 0 6 3 1 5 -13 5 -14 0 -19 -2 -12 -5z"/>
<path d="M4508 443 c7 -3 16 -2 19 1 4 3 -2 6 -13 5 -11 0 -14 -3 -6 -6z"/>
<path d="M5118 443 c6 -2 18 -2 25 0 6 3 1 5 -13 5 -14 0 -19 -2 -12 -5z"/>
<path d="M337 393 c16 -3 23 -13 25 -36 2 -22 9 -32 21 -33 13 -2 14 -1 2 3
-9 2 -15 12 -14 21 4 43 -1 52 -28 51 -23 -1 -24 -2 -6 -6z"/>
<path d="M928 393 c18 -4 22 -11 22 -39 0 -26 4 -34 18 -33 10 0 12 3 5 6 -7
2 -13 20 -13 39 0 31 -3 34 -27 33 -24 -2 -25 -2 -5 -6z"/>
<path d="M1507 393 c16 -3 23 -13 25 -36 2 -23 9 -33 23 -35 19 -3 19 -2 2 8
-12 8 -17 21 -15 38 3 24 -1 27 -27 29 -19 1 -22 -1 -8 -4z"/>
<path d="M218 383 c12 -2 30 -2 40 0 9 3 -1 5 -23 4 -22 0 -30 -2 -17 -4z"/>
<path d="M808 383 c12 -2 30 -2 40 0 9 3 -1 5 -23 4 -22 0 -30 -2 -17 -4z"/>
<path d="M1388 383 c12 -2 30 -2 40 0 9 3 -1 5 -23 4 -22 0 -30 -2 -17 -4z"/>
<path d="M103 373 c9 -2 25 -2 35 0 9 3 1 5 -18 5 -19 0 -27 -2 -17 -5z"/>
<path d="M677 373 c-4 -3 -7 -28 -7 -55 l0 -48 43 2 42 1 -37 4 c-38 4 -38 5
-38 48 0 40 2 44 28 48 l27 4 -26 2 c-14 0 -29 -2 -32 -6z"/>
<path d="M1273 373 c9 -2 25 -2 35 0 9 3 1 5 -18 5 -19 0 -27 -2 -17 -5z"/>
<path d="M438 313 c7 -3 16 -2 19 1 4 3 -2 6 -13 5 -11 0 -14 -3 -6 -6z"/>
<path d="M1018 313 c6 -2 18 -2 25 0 6 3 1 5 -13 5 -14 0 -19 -2 -12 -5z"/>
<path d="M1608 313 c7 -3 16 -2 19 1 4 3 -2 6 -13 5 -11 0 -14 -3 -6 -6z"/>
<path d="M508 303 c6 -2 18 -2 25 0 6 3 1 5 -13 5 -14 0 -19 -2 -12 -5z"/>
<path d="M1088 303 c6 -2 18 -2 25 0 6 3 1 5 -13 5 -14 0 -19 -2 -12 -5z"/>
<path d="M1678 303 c6 -2 18 -2 25 0 6 3 1 5 -13 5 -14 0 -19 -2 -12 -5z"/>
<path d="M353 293 c9 -2 23 -2 30 0 6 3 -1 5 -18 5 -16 0 -22 -2 -12 -5z"/>
<path d="M578 293 c6 -2 18 -2 25 0 6 3 1 5 -13 5 -14 0 -19 -2 -12 -5z"/>
<path d="M943 293 c9 -2 23 -2 30 0 6 3 -1 5 -18 5 -16 0 -22 -2 -12 -5z"/>
<path d="M1168 293 c6 -2 18 -2 25 0 6 3 1 5 -13 5 -14 0 -19 -2 -12 -5z"/>
<path d="M1523 293 c9 -2 23 -2 30 0 6 3 -1 5 -18 5 -16 0 -22 -2 -12 -5z"/>
<path d="M1748 293 c6 -2 18 -2 25 0 6 3 1 5 -13 5 -14 0 -19 -2 -12 -5z"/>
<path d="M233 283 c9 -2 25 -2 35 0 9 3 1 5 -18 5 -19 0 -27 -2 -17 -5z"/>
<path d="M458 283 c12 -2 30 -2 40 0 9 3 -1 5 -23 4 -22 0 -30 -2 -17 -4z"/>
<path d="M595 280 l-40 -7 43 -2 c23 0 42 4 42 9 0 6 -1 9 -2 9 -2 -1 -21 -5
-43 -9z"/>
<path d="M823 283 c9 -2 25 -2 35 0 9 3 1 5 -18 5 -19 0 -27 -2 -17 -5z"/>
<path d="M1048 283 c12 -2 30 -2 40 0 9 3 -1 5 -23 4 -22 0 -30 -2 -17 -4z"/>
<path d="M1185 280 l-40 -7 43 -2 c23 0 42 4 42 9 0 6 -1 9 -2 9 -2 -1 -21 -5
-43 -9z"/>
<path d="M1408 283 c12 -2 30 -2 40 0 9 3 -1 5 -23 4 -22 0 -30 -2 -17 -4z"/>
<path d="M1628 283 c12 -2 30 -2 40 0 9 3 -1 5 -23 4 -22 0 -30 -2 -17 -4z"/>
<path d="M1765 280 l-40 -7 43 -2 c23 0 42 4 42 9 0 6 -1 9 -2 9 -2 -1 -21 -5
-43 -9z"/>
<path d="M108 273 c12 -2 30 -2 40 0 9 3 -1 5 -23 4 -22 0 -30 -2 -17 -4z"/>
<path d="M1278 273 c12 -2 32 -2 45 0 12 2 2 4 -23 4 -25 0 -35 -2 -22 -4z"/>
<path d="M363 175 c0 -22 2 -30 4 -17 2 12 2 30 0 40 -3 9 -5 -1 -4 -23z"/>
<path d="M671 158 c1 -55 5 -50 11 15 2 20 0 37 -4 37 -4 0 -7 -24 -7 -52z"/>
<path d="M953 175 c0 -22 2 -30 4 -17 2 12 2 30 0 40 -3 9 -5 -1 -4 -23z"/>
<path d="M1533 175 c0 -22 2 -30 4 -17 2 12 2 30 0 40 -3 9 -5 -1 -4 -23z"/>
<path d="M433 133 c15 -2 37 -2 50 0 12 2 0 4 -28 4 -27 0 -38 -2 -22 -4z"/>
<path d="M1023 133 c15 -2 37 -2 50 0 12 2 0 4 -28 4 -27 0 -38 -2 -22 -4z"/>
<path d="M1608 133 c12 -2 32 -2 45 0 12 2 2 4 -23 4 -25 0 -35 -2 -22 -4z"/>
<path d="M570 126 c0 -2 16 -6 35 -8 19 -2 35 0 35 4 0 4 -16 8 -35 8 -19 0
-35 -2 -35 -4z"/>
<path d="M1160 126 c0 -2 16 -6 35 -8 19 -2 35 0 35 4 0 4 -16 8 -35 8 -19 0
-35 -2 -35 -4z"/>
<path d="M1740 126 c0 -2 16 -6 35 -8 19 -2 35 0 35 4 0 4 -16 8 -35 8 -19 0
-35 -2 -35 -4z"/>
</g>
</svg>
