<?xml version="1.0" standalone="no"?>
<!DOCTYPE svg PUBLIC "-//W3C//DTD SVG 20010904//EN"
 "http://www.w3.org/TR/2001/REC-SVG-20010904/DTD/svg10.dtd">
<svg version="1.0" xmlns="http://www.w3.org/2000/svg"
 width="584.000000pt" height="142.000000pt" viewBox="0 0 584.000000 142.000000"
 preserveAspectRatio="xMidYMid meet">
<metadata>
Created by potrace 1.15, written by Peter Selinger 2001-2017
</metadata>
<g transform="translate(0.000000,142.000000) scale(0.100000,-0.100000)"
fill="#000000" stroke="none">
<path d="M1295 1336 c-22 -8 -218 -74 -435 -149 -217 -74 -424 -145 -460 -157
-134 -47 -188 -92 -209 -176 -14 -56 -14 -372 0 -428 13 -54 59 -110 107 -135
57 -28 658 -221 691 -221 36 0 89 18 124 43 27 18 397 501 438 572 34 57 36
84 28 298 -7 189 -10 211 -32 255 -43 86 -157 131 -252 98z m131 -105 c19 -12
36 -33 42 -53 17 -55 26 -402 11 -429 -25 -47 -398 -537 -424 -558 -15 -11
-41 -21 -58 -21 -17 0 -171 45 -341 101 -281 90 -314 103 -343 134 l-33 35 0
197 c0 244 1 247 112 287 324 116 949 325 973 325 17 1 44 -8 61 -18z"/>
<path d="M2916 941 c-19 -7 -19 -8 2 -13 22 -6 22 -8 22 -220 l0 -215 25 -11
c58 -27 131 -2 166 55 39 62 28 197 -18 230 -24 18 -79 16 -108 -3 l-25 -16 0
101 c0 98 -1 101 -22 100 -13 0 -32 -4 -42 -8z m165 -221 c37 -50 33 -175 -7
-215 -18 -18 -65 -20 -82 -3 -17 17 -17 234 1 242 28 12 71 0 88 -24z"/>
<path d="M1843 858 l27 -10 0 -178 0 -179 -27 -4 c-16 -2 8 -4 52 -4 44 0 68
2 53 4 l-28 4 0 179 0 179 33 10 c26 7 16 9 -53 9 -68 0 -80 -2 -57 -10z"/>
<path d="M2038 857 c22 -13 22 -13 -38 -92 -32 -44 -60 -86 -60 -92 0 -7 25
-53 56 -103 l56 -90 52 1 c34 1 43 3 28 8 -16 4 -47 42 -92 110 l-68 105 54
70 c35 45 67 75 87 83 30 11 28 12 -33 12 -58 0 -62 -1 -42 -12z"/>
<path d="M4345 847 c-61 -34 -90 -94 -90 -183 1 -61 5 -78 28 -113 44 -66 129
-95 215 -72 l42 12 0 89 0 90 -52 -1 c-30 -1 -41 -4 -25 -6 l28 -4 -3 -82 -3
-82 -35 -3 c-50 -4 -97 29 -122 85 -30 68 -22 178 16 228 33 43 68 59 115 51
39 -6 48 -16 56 -68 10 -56 25 -46 25 16 0 62 -6 66 -100 66 -39 0 -67 -7 -95
-23z"/>
<path d="M3970 819 c-7 -16 -22 -36 -34 -44 -17 -13 -18 -15 -3 -15 15 0 17
-13 17 -120 0 -117 1 -122 26 -147 21 -21 32 -24 61 -20 47 8 64 24 20 19 -56
-6 -60 5 -58 166 l1 102 40 0 c22 0 40 5 40 10 0 6 -18 10 -40 10 -38 0 -40 2
-40 29 0 41 -15 47 -30 10z"/>
<path d="M5580 819 c-7 -16 -22 -36 -34 -44 -17 -13 -18 -15 -3 -15 15 0 17
-13 17 -120 0 -117 1 -122 26 -147 21 -21 32 -24 61 -20 20 4 40 10 45 15 5 5
-5 7 -22 4 -54 -8 -60 7 -60 144 l0 124 40 0 c22 0 40 5 40 10 0 6 -18 10 -40
10 -38 0 -40 2 -40 29 0 41 -15 47 -30 10z"/>
<path d="M2211 750 c-52 -52 -65 -143 -32 -216 46 -102 178 -75 211 44 13 47
13 67 -1 116 -16 58 -49 86 -103 86 -36 0 -50 -6 -75 -30z m111 -10 c25 -35
35 -151 16 -205 -12 -36 -17 -40 -50 -43 -57 -5 -73 27 -73 144 0 77 3 95 19
113 26 28 63 24 88 -9z"/>
<path d="M2446 771 c-19 -7 -19 -8 2 -13 21 -6 22 -11 22 -132 0 -108 -2 -126
-17 -135 -14 -8 -3 -10 42 -10 46 0 55 2 38 9 -22 9 -23 15 -23 119 0 102 2
111 22 125 33 23 74 20 92 -6 12 -17 16 -49 16 -129 0 -94 -2 -108 -17 -112
-10 -3 9 -5 42 -5 33 0 53 2 44 5 -14 3 -17 23 -21 116 -6 143 -21 177 -77
177 -28 0 -49 -8 -70 -26 l-31 -26 0 26 c0 21 -5 26 -22 25 -13 0 -32 -4 -42
-8z"/>
<path d="M2705 754 c-21 -18 -24 -23 -10 -18 11 4 34 9 52 12 44 6 55 -21 61
-145 5 -101 4 -103 -19 -112 -19 -8 -10 -10 41 -9 36 0 55 3 43 5 -20 4 -22
10 -25 128 -2 104 -6 126 -22 144 -27 30 -83 28 -121 -5z"/>
<path d="M3366 771 c-19 -7 -19 -8 2 -13 21 -6 22 -11 22 -132 0 -122 -1 -127
-22 -136 -17 -6 -6 -9 42 -8 36 0 55 3 43 5 -22 4 -23 8 -23 118 0 106 1 115
22 129 33 23 74 20 92 -6 12 -17 16 -49 16 -129 0 -94 -2 -108 -17 -112 -10
-3 9 -5 42 -5 33 0 53 2 44 5 -14 3 -17 24 -21 122 -5 144 -17 171 -77 171
-23 0 -48 -8 -64 -20 -14 -11 -28 -20 -31 -20 -3 0 -6 9 -6 20 0 21 -27 26
-64 11z"/>
<path d="M3708 773 c-14 -3 -18 -15 -18 -51 0 -34 3 -43 10 -32 5 8 10 23 10
32 0 25 45 51 75 44 28 -7 38 -35 33 -87 -3 -32 -5 -34 -50 -39 -63 -8 -98
-40 -98 -91 0 -26 7 -45 22 -59 27 -25 54 -25 95 -1 26 16 32 17 37 5 3 -8 19
-14 38 -14 27 1 30 2 16 11 -16 9 -18 26 -18 129 0 107 -2 122 -20 140 -19 19
-84 26 -132 13z"/>
<path d="M4610 770 c-13 -8 -12 -10 3 -10 15 0 17 -13 17 -134 0 -120 -2 -135
-17 -139 -10 -3 11 -5 47 -4 36 0 55 2 42 4 -22 4 -23 6 -20 131 l3 127 39 -2
c36 -3 55 8 56 30 0 13 -56 7 -76 -8 -25 -19 -34 -19 -34 0 0 17 -37 20 -60 5z"/>
<path d="M4838 773 c-14 -3 -18 -15 -17 -51 l0 -47 19 42 c19 43 46 59 80 48
23 -7 33 -38 28 -86 -3 -32 -5 -34 -50 -39 -63 -8 -98 -40 -98 -91 0 -26 7
-45 22 -59 27 -25 54 -25 95 -1 26 16 32 17 37 5 3 -8 19 -14 38 -14 27 1 30
2 16 11 -16 9 -18 26 -18 129 0 107 -2 122 -20 140 -19 19 -84 26 -132 13z"/>
<path d="M5076 771 c-19 -7 -19 -8 2 -13 21 -6 22 -11 22 -132 0 -108 -2 -126
-17 -135 -14 -8 -3 -10 42 -9 33 0 50 3 38 5 -22 4 -23 8 -23 118 0 106 1 115
22 129 33 23 74 20 92 -6 12 -17 16 -49 16 -129 0 -94 -2 -108 -17 -112 -10
-3 9 -5 42 -5 33 0 52 2 43 5 -14 4 -18 16 -19 61 -3 157 -5 180 -22 206 -24
36 -83 36 -126 0 l-31 -26 0 26 c0 21 -5 26 -22 25 -13 0 -32 -4 -42 -8z"/>
<path d="M5405 770 c-17 -7 -17 -9 -2 -9 15 -1 17 -14 17 -135 0 -120 -2 -135
-17 -139 -10 -3 9 -5 42 -5 33 0 52 2 43 5 -20 5 -21 16 -19 196 1 94 0 97
-22 96 -12 0 -31 -4 -42 -9z"/>
</g>
</svg>
